<svg width="634" height="553" viewBox="0 0 634 553" fill="none" xmlns="http://www.w3.org/2000/svg">
<path d="M317 -6.07579e-05L533.506 125L533.506 375L317 500L100.494 375L100.494 125L317 -6.07579e-05Z" fill="black"/>
<path d="M311.84 7.88678C314.934 6.10037 318.746 6.10036 321.84 7.88678L509.681 116.34C516.347 120.189 516.347 129.811 509.681 133.66L321.84 242.113C318.746 243.899 314.934 243.899 311.84 242.113L123.999 133.66C117.333 129.811 117.333 120.189 123.999 116.34L311.84 7.88678Z" fill="#AAAAAA"/>
<path d="M109.904 375.525C106.81 373.739 104.904 370.438 104.904 366.865L104.907 149.964C104.907 142.266 113.24 137.455 119.906 141.304L307.75 249.752C310.844 251.538 312.75 254.839 312.75 258.412L312.747 475.313C312.747 483.011 304.414 487.822 297.747 483.973L109.904 375.525Z" fill="#00AA00"/>
<path d="M529.256 366.588C529.256 370.16 527.35 373.462 524.256 375.248L336.413 483.696C329.746 487.545 321.413 482.734 321.413 475.036L321.41 258.135C321.41 254.562 323.316 251.261 326.41 249.475L514.254 141.026C520.92 137.178 529.253 141.989 529.253 149.687L529.256 366.588Z" fill="#AA0000"/>
</svg>
